<svg width="14" height="14" viewBox="0 0 14 14" fill="none" xmlns="http://www.w3.org/2000/svg">
<path d="M13.3614 0.283522C13.3208 0.182381 13.2428 0.10079 13.1435 0.0557227C13.0443 0.0106559 12.9315 0.00558328 12.8286 0.0415602C12.7258 0.0775371 12.6407 0.151793 12.5912 0.248881C12.5416 0.345969 12.5315 0.458414 12.5627 0.562822C13.213 2.43182 11.9222 3.82762 10.938 4.57522L10.5404 4.00542C10.4067 3.81432 10.1078 3.65542 9.87543 3.65262L7.64383 3.66242C7.37122 3.67066 7.1059 3.7524 6.87593 3.89902L0.300128 8.50992C0.147175 8.61756 0.0431018 8.78141 0.0106962 8.96561C-0.0217095 9.14981 0.0201927 9.33935 0.127228 9.49272L3.11553 13.7683C3.33953 14.0868 3.69723 14.0483 4.01643 13.8257L10.5922 9.21412C10.7812 9.08042 10.9996 8.79202 11.0766 8.57152L11.7752 6.37002C11.8522 6.15022 11.8053 5.81492 11.6716 5.62382L11.4294 5.27662C12.751 4.26372 14.123 2.47382 13.3614 0.283522V0.283522ZM10.3017 6.83412C10.1806 6.91892 10.0439 6.97902 9.89955 7.01098C9.75517 7.04294 9.60591 7.04615 9.46029 7.0204C9.31468 6.99466 9.17557 6.94048 9.0509 6.86095C8.92623 6.78143 8.81846 6.67812 8.73373 6.55692C8.56218 6.31168 8.49494 6.00839 8.54678 5.71363C8.59862 5.41887 8.7653 5.15672 9.01023 4.98472C9.20224 4.85019 9.43149 4.77902 9.66594 4.78116C9.90038 4.78329 10.1283 4.85862 10.3178 4.99662C10.1274 5.11142 9.99653 5.17862 9.97203 5.18912C9.88526 5.2305 9.81511 5.30012 9.77308 5.38657C9.73106 5.47303 9.71964 5.5712 9.74071 5.665C9.76178 5.75879 9.81408 5.84265 9.88905 5.90283C9.96401 5.963 10.0572 5.99593 10.1533 5.99622C10.2135 5.99622 10.2751 5.98222 10.3332 5.95492C10.469 5.89052 10.6146 5.81422 10.7665 5.72392C10.8015 5.93397 10.7764 6.14961 10.6942 6.34602C10.6119 6.54243 10.4759 6.71162 10.3017 6.83412V6.83412Z" fill="white"/>
</svg>
