<svg width="27" height="9" viewBox="0 0 27 9" fill="none" xmlns="http://www.w3.org/2000/svg">
<path d="M22.3288 4.89068e-06C21.2128 4.89068e-06 20.1891 0.377172 19.3859 1.00578C18.5545 0.353779 17.5149 -0.00152041 16.4429 4.89068e-06C15.327 4.89068e-06 14.3032 0.377172 13.5 1.00578C12.6687 0.353779 11.629 -0.00152041 10.5571 4.89068e-06C9.44109 4.89068e-06 8.41737 0.377172 7.61414 1.00578C6.9288 0.469979 6.09991 0.13221 5.2235 0.0316095C4.34709 -0.0689909 3.45903 0.0716947 2.66221 0.437367C1.86538 0.80304 1.1924 1.37873 0.721234 2.09775C0.250069 2.81677 0 3.64968 0 4.5C0 5.35032 0.250069 6.18323 0.721234 6.90225C1.1924 7.62127 1.86538 8.19696 2.66221 8.56263C3.45903 8.92831 4.34709 9.06899 5.2235 8.96839C6.09991 8.86779 6.9288 8.53002 7.61414 7.99422C8.41737 8.62283 9.44109 9 10.5571 9C11.673 9 12.6968 8.62283 13.5 7.99422C14.3032 8.62283 15.327 9 16.4429 9C17.5589 9 18.5826 8.62283 19.3859 7.99422C19.9664 8.44811 20.6516 8.76109 21.3838 8.90687C22.116 9.05265 22.8738 9.02697 23.5936 8.83197C24.3133 8.63698 24.974 8.27837 25.52 7.7863C26.066 7.29423 26.4814 6.68307 26.7313 6.00418C26.9812 5.3253 27.0584 4.59854 26.9562 3.88499C26.854 3.17144 26.5755 2.49194 26.1441 1.90362C25.7127 1.31529 25.141 0.835331 24.4771 0.504077C23.8132 0.172823 23.0765 -4.39141e-05 22.3288 4.89068e-06ZM19.3859 6.5224C18.9475 5.93269 18.7122 5.22534 18.7131 4.5C18.7131 3.74567 18.9629 3.04769 19.3859 2.4776C19.8089 3.04769 20.0586 3.74567 20.0586 4.5C20.0586 5.25434 19.8089 5.95231 19.3859 6.5224ZM13.5 6.5224C13.0616 5.93269 12.8263 5.22534 12.8273 4.5C12.8273 3.74567 13.077 3.04769 13.5 2.4776C13.923 3.04769 14.1727 3.74567 14.1727 4.5C14.1727 5.25434 13.923 5.95231 13.5 6.5224ZM7.61414 6.5224C7.17577 5.93269 6.94047 5.22534 6.9414 4.5C6.9414 3.74567 7.19115 3.04769 7.61414 2.4776C8.03713 3.04769 8.28687 3.74567 8.28687 4.5C8.28687 5.25434 8.03713 5.95231 7.61414 6.5224ZM1.05554 4.5C1.05581 3.85002 1.24483 3.21308 1.60124 2.6612C1.95764 2.10932 2.46721 1.66452 3.07232 1.37709C3.67743 1.08966 4.35395 0.97108 5.02537 1.03475C5.69678 1.09841 6.33632 1.34179 6.87165 1.73736C6.23203 2.52631 5.88509 3.49891 5.88618 4.5C5.88618 5.54155 6.25517 6.50072 6.87165 7.26264C6.33632 7.65821 5.69678 7.90159 5.02537 7.96526C4.35395 8.02892 3.67743 7.91034 3.07232 7.62291C2.46721 7.33548 1.95764 6.89068 1.60124 6.3388C1.24483 5.78692 1.05581 5.14998 1.05554 4.5ZM8.35662 7.26264C8.99624 6.47369 9.34318 5.50109 9.3421 4.5C9.3421 3.45846 8.97311 2.49928 8.35662 1.73736C8.98734 1.26956 9.76109 1.01612 10.5571 1.01662C11.385 1.01662 12.1478 1.28541 12.7575 1.73736C12.1176 2.52615 11.7706 3.49886 11.772 4.5C11.772 5.54155 12.141 6.50072 12.7575 7.26264C12.1268 7.73044 11.353 7.98388 10.5571 7.98338C9.76099 7.98445 8.98705 7.73096 8.35662 7.26264ZM14.2425 7.26264C14.8824 6.47385 15.2294 5.50114 15.228 4.5C15.228 3.45846 14.859 2.49928 14.2425 1.73627C14.8522 1.28541 15.6149 1.01554 16.4429 1.01554C17.2709 1.01554 18.0336 1.28432 18.6434 1.73627C18.0034 2.52507 17.6565 3.49777 17.6579 4.49892C17.6579 5.54046 18.0269 6.49964 18.6434 7.26156C18.0127 7.72936 17.2389 7.9828 16.4429 7.9823C15.6469 7.98417 14.8728 7.73101 14.2425 7.26264ZM22.3288 7.98338C21.5327 7.98445 20.7588 7.73096 20.1283 7.26264C20.7678 6.47361 21.1147 5.50106 21.1138 4.5C21.1138 3.45846 20.7448 2.49928 20.1283 1.73736C20.5842 1.4001 21.1169 1.17238 21.6823 1.07309C22.2477 0.973795 22.8295 1.00579 23.3796 1.16642C23.9296 1.32705 24.4319 1.61169 24.8449 1.99673C25.258 2.38177 25.5698 2.85612 25.7545 3.38045C25.9392 3.90477 25.9915 4.46397 25.9071 5.01167C25.8227 5.55937 25.6039 6.07979 25.269 6.52978C24.9341 6.97977 24.4927 7.34636 23.9814 7.59915C23.47 7.85195 22.9035 7.98366 22.3288 7.98338Z" fill="black"/>
</svg>
