<svg width="21" height="21" viewBox="0 0 21 21" fill="none" xmlns="http://www.w3.org/2000/svg">
<path d="M10.5 4.69284L12.6669 2.04422C12.6669 2.04422 16.3787 2.12297 20.0773 3.84234C19.1303 5.27428 17.2508 5.97516 17.2508 5.97516C17.1242 4.71712 16.2428 4.41 13.44 4.41L10.5007 21.0007L7.54097 4.40672C4.75847 4.40672 3.87713 4.7145 3.75047 5.97188C3.75047 5.97188 1.87031 5.27822 0.924 3.84563C4.62197 2.12625 8.33437 2.0475 8.33437 2.0475L10.5013 4.69284H10.498H10.5ZM10.5 1.28166C13.4873 1.25409 16.9089 1.743 20.412 3.27403C20.8806 2.42616 21 2.05406 21 2.05406C17.1721 0.536156 13.5863 0.0137812 10.5 0C7.41366 0.0137812 3.82791 0.533531 0 2.05406C0 2.05406 0.170625 2.51541 0.588 3.27797C4.09172 1.73972 7.51275 1.25475 10.5 1.27837V1.28166Z" fill="black"/>
</svg>
